<?xml version="1.0" encoding="UTF-8"?>
<svg width="40" height="24" viewBox="0 0 40 24" version="1.1" xmlns="http://www.w3.org/2000/svg">
    <g fill="#FF9900">
        <path d="M8.027 18.172C3.888 18.172.437 15.29.437 11.086c0-3.803 3.05-7.087 6.788-7.087 2.006 0 3.612.852 4.817 2.157l-1.205 1.904c-.802-.852-2.006-1.503-3.612-1.503-2.408 0-4.415 2.256-4.415 4.813 0 2.657 2.007 4.813 4.415 4.813 1.606 0 2.81-.651 3.612-1.503l1.205 1.904c-1.205 1.305-2.811 2.157-4.817 2.157z"/>
        <path d="M19.524 18.172c-2.809 0-5.017-2.256-5.017-5.313V6.273h2.408v6.486c0 1.804 1.205 3.109 2.81 3.109 1.606 0 2.81-1.305 2.81-3.109V6.273h2.408v6.586c0 3.057-2.408 5.313-5.218 5.313z"/>
        <path d="M39.563 6.273l-4.817 11.899h-2.408l-4.816-11.899h2.609l3.612 9.042 3.612-9.042h2.408z"/>
    </g>
</svg>